Coordinates
version=1
nRows=29
nColumns=22
inDegrees=yes

Units are S.I. units (second, meters, Newtons, ...)
If the header above contains a line with 'inDegrees', this indicates whether rotational values are in degrees (yes) or radians (no).

endheader
time	pelvis_tilt	pelvis_list	pelvis_rotation	pelvis_tx	pelvis_ty	pelvis_tz	hip_flexion_r	hip_adduction_r	hip_rotation_r	knee_angle_r	ankle_angle_r	subtalar_angle_r	hip_flexion_l	hip_adduction_l	hip_rotation_l	knee_angle_l	ankle_angle_l	subtalar_angle_l	lumbar_extension	lumbar_bending	lumbar_rotation
      2.38000000	     -5.26148212	     -1.19085938	    -41.02561530	     -0.56828755	      0.92914221	      0.30463430	     -5.01884309	     11.72102337	     14.96764572	    -19.18752764	     16.80767131	     -2.65646431	     31.06093597	     -5.20501865	      6.74563628	    -18.15148458	      6.77047848	      4.87563819	     -5.97367987	      1.99563118	     13.26652822
      2.39000000	     -5.33348060	     -1.07414393	    -41.38451797	     -0.56030050	      0.92861512	      0.30971063	     -5.10291751	     11.60639892	     15.24631122	    -19.93855828	     16.59048792	     -2.41044676	     31.06559764	     -4.99767331	      6.74139083	    -18.86743826	      6.04222727	      4.17435348	     -5.70382587	      1.85235757	     13.19119508
      2.40000000	     -5.38620039	     -0.96424903	    -41.65665565	     -0.55206341	      0.92830337	      0.31483245	     -5.19092252	     11.48752226	     15.45517418	    -20.70539997	     16.22921982	     -2.10229990	     31.06539609	     -4.75100244	      6.84710457	    -19.68391208	      5.18008432	      3.35243505	     -5.43201896	      1.70113596	     13.02447465
      2.41000000	     -5.42068970	     -0.85591840	    -41.87175583	     -0.54366635	      0.92820921	      0.32003227	     -5.25758707	     11.36948326	     15.62189700	    -21.52408856	     15.75387303	     -1.74008690	     31.07051078	     -4.49224519	      6.96445228	    -20.57662018	      4.29328232	      2.52352664	     -5.16193425	      1.53252360	     12.80156799
      2.42000000	     -5.43639851	     -0.74233029	    -42.05844534	     -0.53518312	      0.92835682	      0.32533607	     -5.28283763	     11.25336326	     15.78290608	    -22.42095974	     15.12965309	     -1.32201486	     31.05573848	     -4.23933830	      7.05679278	    -21.47867164	      3.44938850	      1.80714552	     -4.89442991	      1.33486633	     12.54823928
      2.43000000	     -5.42921703	     -0.66399908	    -42.23521694	     -0.52666404	      0.92875088	      0.33072250	     -5.27745796	     11.16010722	     15.87529290	    -23.41635632	     14.38799503	     -0.72682872	     31.02678086	     -4.03799282	      7.02102879	    -22.44474777	      2.70618860	      1.11977941	     -4.67464692	      1.14396673	     12.30980843
      2.44000000	     -5.41395790	     -0.58011281	    -42.42931226	     -0.51819114	      0.92936696	      0.33622672	     -5.17190809	     11.08272976	     15.96570583	    -24.55870665	     13.48368656	      0.02894281	     30.94294077	     -3.88025521	      6.91006797	    -23.33949337	      2.08901438	      0.66460832	     -4.45864655	      0.92933221	     12.08065963
      2.45000000	     -5.40402289	     -0.50286911	    -42.64064543	     -0.50977354	      0.93015570	      0.34181033	     -4.94666350	     11.03543129	     16.01482650	    -25.86326958	     12.43280397	      1.00202117	     30.81233677	     -3.77934921	      6.71808274	    -24.16758506	      1.60654017	      0.40875465	     -4.24815638	      0.71886252	     11.87929258
      2.46000000	     -5.37724587	     -0.44476124	    -42.83858094	     -0.50132733	      0.93113088	      0.34743334	     -4.62087115	     11.00074512	     15.95606454	    -27.32156381	     11.20326923	      2.34109390	     30.58581925	     -3.70564056	      6.47390907	    -24.88957963	      1.30564952	      0.30760101	     -4.06546932	      0.51475843	     11.63741257
      2.47000000	     -5.39007134	     -0.38242149	    -43.05235428	     -0.49300835	      0.93214312	      0.35304619	     -4.08287035	     11.00693361	     15.79523211	    -29.00192399	      9.83857186	      3.92415009	     30.33907182	     -3.68133874	      6.20280155	    -25.51567524	      1.10728366	      0.29883682	     -3.85921903	      0.33543188	     11.43352454
      2.48000000	     -5.37600590	     -0.33708925	    -43.23882557	     -0.48468007	      0.93325069	      0.35857877	     -3.41378542	     10.99619451	     15.45931353	    -30.85738805	      8.34388023	      5.93727896	     29.98878128	     -3.64314730	      5.92302672	    -26.02059973	      1.09467602	      0.29654548	     -3.69880201	      0.16432464	     11.15963182
      2.49000000	     -5.33355149	     -0.30732242	    -43.43317190	     -0.47644543	      0.93442291	      0.36402911	     -2.60467053	     10.96013440	     14.99587869	    -32.89225585	      6.76675182	      8.26860245	     29.52164208	     -3.60052433	      5.62319847	    -26.38046182	      1.24907625	      0.24819313	     -3.59271631	     -0.00076059	     10.85372349
      2.50000000	     -5.30615876	     -0.24776469	    -43.64377830	     -0.46844544	      0.93547427	      0.36930601	     -1.54896678	     10.88737265	     14.37870442	    -35.15060491	      5.20261061	     10.73004258	     29.06106740	     -3.54275269	      5.31905316	    -26.67651744	      1.49018222	      0.14453647	     -3.48415293	     -0.16993954	     10.54954094
      2.51000000	     -5.22776429	     -0.16931358	    -43.87002075	     -0.46063835	      0.93648227	      0.37440216	     -0.33827195	     10.71462314	     13.61858973	    -37.57267030	      3.74454699	     13.23326109	     28.53353792	     -3.43931795	      4.94555898	    -26.88368467	      1.79903708	     -0.00458038	     -3.43713935	     -0.37593620	     10.21002850
      2.52000000	     -5.14199142	     -0.04773468	    -44.10228686	     -0.45303655	      0.93731705	      0.37927891	      1.07019762	     10.44607995	     12.72379191	    -40.13759617	      2.48969891	     15.47163302	     28.00538541	     -3.28793222	      4.56528485	    -27.02429162	      2.23676619	     -0.21980453	     -3.39215042	     -0.60171481	      9.83994618
      2.53000000	     -4.97375240	      0.08732906	    -44.33114765	     -0.44557160	      0.93811586	      0.38393693	      2.55196296	     10.02737529	     11.70657392	    -42.76849987	      1.52064917	     17.29347693	     27.39806160	     -3.06396435	      4.11786729	    -27.09717345	      2.70047708	     -0.44788469	     -3.43481283	     -0.87856417	      9.41709651
      2.54000000	     -4.73436350	      0.22594509	    -44.53762215	     -0.43818431	      0.93888654	      0.38838031	      4.07330789	      9.46792776	     10.58627529	    -45.40547948	      0.86288466	     18.47775821	     26.71724750	     -2.77070445	      3.64534671	    -27.10857707	      3.19250558	     -0.67906693	     -3.55371209	     -1.18650785	      8.92791977
      2.55000000	     -4.42976567	      0.36209248	    -44.70816131	     -0.43082603	      0.93964669	      0.39262004	      5.60243190	      8.77239383	      9.38258087	    -47.99364363	      0.53049702	     18.90092845	     25.96911974	     -2.40795970	      3.17913037	    -27.06953300	      3.70596885	     -0.89675121	     -3.74185187	     -1.51398868	      8.36562672
      2.56000000	     -4.08198073	      0.48330026	    -44.83311115	     -0.42345113	      0.94043131	      0.39669946	      7.11108652	      7.96264113	      8.10862213	    -50.47012925	      0.50885501	     18.73556116	     25.15358654	     -1.99880205	      2.74153206	    -26.96565382	      4.21593974	     -1.09496560	     -3.97996397	     -1.83458383	      7.73555663
      2.57000000	     -3.73292270	      0.59079934	    -44.91412193	     -0.41608340	      0.94120613	      0.40066263	      8.60994466	      7.09691274	      6.81524594	    -52.79519971	      0.70460303	     17.76344023	     24.32459597	     -1.56784417	      2.38188029	    -26.84188758	      4.73477984	     -1.32576700	     -4.22713333	     -2.11901377	      7.04119064
      2.58000000	     -3.35124007	      0.64698673	    -44.95575679	     -0.40868575	      0.94211121	      0.40459191	     10.00638447	      6.18832688	      5.52807651	    -54.90848101	      1.11706422	     16.33127736	     23.40449511	     -1.12914380	      2.08751829	    -26.65824218	      5.24085006	     -1.49709936	     -4.53166715	     -2.36880022	      6.30088807
      2.59000000	     -2.98757816	      0.66408900	    -44.96329252	     -0.40129702	      0.94309712	      0.40853856	     11.33434588	      5.29322091	      4.27839922	    -56.78370595	      1.69609699	     14.63124695	     22.45020729	     -0.71639060	      1.86654024	    -26.43134196	      5.72475694	     -1.64129383	     -4.83472729	     -2.55935243	      5.52142537
      2.60000000	     -2.65109235	      0.63064072	    -44.95529678	     -0.39398939	      0.94415085	      0.41251416	     12.59125819	      4.46276284	      3.11030387	    -58.41581105	      2.38520817	     12.67759573	     21.48291156	     -0.34656500	      1.74535040	    -26.20690913	      6.20964055	     -1.76822112	     -5.14513314	     -2.68166727	      4.75251260
      2.61000000	     -2.35781619	      0.55332832	    -44.94373970	     -0.38678732	      0.94526186	      0.41656808	     13.78448350	      3.71836727	      2.02946036	    -59.78421653	      3.16447970	     10.69611604	     20.51578580	     -0.03988271	      1.68925206	    -25.97801186	      6.67662315	     -1.86996463	     -5.43808208	     -2.73616435	      4.01007877
      2.62000000	     -2.10713660	      0.43967405	    -44.93443759	     -0.37971225	      0.94641642	      0.42070138	     14.91957160	      3.07108077	      1.04425472	    -60.88728976	      3.96026452	      8.73209720	     19.55907624	      0.20226852	      1.66477765	    -25.74934484	      7.10665219	     -1.94767779	     -5.70999655	     -2.73059727	      3.29646503
      2.63000000	     -1.90098456	      0.29627945	    -44.94659985	     -0.37279354	      0.94759496	      0.42495697	     15.99880749	      2.54338371	      0.18334852	    -61.71899364	      4.75471020	      6.88434445	     18.60851242	      0.37485184	      1.65191292	    -25.50921804	      7.52477114	     -2.01133173	     -5.95165475	     -2.67498904	      2.61997097
      2.64000000	     -1.72860690	      0.13029127	    -44.98708359	     -0.36605502	      0.94878218	      0.42932772	     17.02422133	      2.12819553	     -0.55913233	    -62.28828490	      5.50892215	      5.22322092	     17.66169559	      0.48871336	      1.63687598	    -25.25684708	      7.92460025	     -2.06597410	     -6.17224522	     -2.58896591	      1.99442157
      2.65000000	     -1.56996428	     -0.05122479	    -45.04551929	     -0.35946625	      0.94996072	      0.43376439	     17.99008678	      1.78938714	     -1.22011901	    -62.60784420	      6.19240036	      3.80319048	     16.71399117	      0.56712762	      1.59979877	    -24.99843529	      8.29395089	     -2.11457281	     -6.38713832	     -2.48846105	      1.42053220
      2.66000000	     -1.43582037	     -0.23844299	    -45.13907774	     -0.35304481	      0.95109868	      0.43831273	     18.90526956	      1.55161725	     -1.76803343	    -62.67859375	      6.81756575	      2.60014327	     15.75919103	      0.60548759	      1.53923892	    -24.70275253	      8.66256648	     -2.17150994	     -6.57710473	     -2.37726411	      0.89912584
